<svg width="1243" height="526" viewBox="0 0 1243 526" fill="none" xmlns="http://www.w3.org/2000/svg">
<path d="M1101.43 524.69C1071.13 524.69 1046.05 519.01 1026.17 507.65C1006.76 496.29 991.376 479.723 980.016 457.95C968.656 436.177 960.61 409.907 955.876 379.14C951.616 348.373 949.25 314.057 948.776 276.19C948.776 221.283 952.326 176.08 959.426 140.58C966.526 104.607 976.703 76.4433 989.956 56.09C1003.21 35.7367 1019.07 21.3 1037.53 12.78C1055.99 4.26 1076.81 0 1100.01 0C1126.99 0 1150.18 5.20667 1169.59 15.62C1189.47 26.0333 1204.85 41.6533 1215.74 62.48C1227.1 82.8333 1233.49 108.63 1234.91 139.87H1141.9C1141.42 125.67 1139.29 114.31 1135.51 105.79C1131.72 97.27 1126.75 91.1167 1120.6 87.33C1114.44 83.5433 1107.58 81.65 1100.01 81.65C1089.59 81.65 1081.07 85.2 1074.45 92.3C1067.82 98.9267 1062.61 108.867 1058.83 122.12C1055.51 134.9 1052.91 150.757 1051.02 169.69C1049.6 188.623 1049.12 210.633 1049.6 235.72H1054.57C1058.35 223.413 1063.8 213.237 1070.9 205.19C1078.47 196.67 1087.46 190.28 1097.88 186.02C1108.76 181.76 1120.12 179.63 1131.96 179.63C1158.94 179.63 1180.47 186.257 1196.57 199.51C1213.13 212.763 1224.97 232.17 1232.07 257.73C1239.17 282.817 1242.72 313.11 1242.72 348.61C1242.72 389.79 1237.04 423.397 1225.68 449.43C1214.79 475.463 1198.7 494.633 1177.4 506.94C1156.57 518.773 1131.25 524.69 1101.43 524.69ZM1101.43 443.75C1113.26 443.75 1122.25 439.963 1128.41 432.39C1134.56 424.817 1138.82 414.167 1141.19 400.44C1143.55 386.24 1144.74 369.673 1144.74 350.74C1144.74 325.18 1142.84 305.773 1139.06 292.52C1135.74 278.793 1131.01 269.327 1124.86 264.12C1118.7 258.913 1111.13 256.31 1102.14 256.31C1091.25 256.31 1082.49 260.097 1075.87 267.67C1069.24 275.243 1064.51 285.893 1061.67 299.62C1058.83 313.347 1057.41 329.677 1057.41 348.61C1057.41 372.75 1059.06 391.683 1062.38 405.41C1066.16 419.137 1071.37 429.077 1078 435.23C1084.62 440.91 1092.43 443.75 1101.43 443.75Z" fill="white"/>
<path d="M641.075 518.3V491.32C641.075 473.333 644.152 455.583 650.305 438.07C656.458 420.083 664.505 402.57 674.445 385.53C684.385 368.49 695.272 351.687 707.105 335.12C719.412 318.08 731.482 301.513 743.315 285.42C755.148 268.853 766.035 252.523 775.975 236.43C785.915 220.337 793.962 204.48 800.115 188.86C806.268 173.24 809.345 157.857 809.345 142.71C809.345 128.983 807.925 117.623 805.085 108.63C802.245 99.6367 797.748 93.01 791.595 88.75C785.915 84.0167 778.815 81.65 770.295 81.65C758.462 81.65 749.468 85.91 743.315 94.43C737.635 102.95 733.848 114.073 731.955 127.8C730.535 141.527 730.298 156.91 731.245 173.95H635.395C633.975 137.977 637.998 106.973 647.465 80.94C657.405 54.9067 672.788 35.0267 693.615 21.3C714.915 7.1 740.475 0 770.295 0C798.695 0 823.072 5.20667 843.425 15.62C864.252 25.56 880.108 40.9433 890.995 61.77C901.882 82.5967 907.325 108.867 907.325 140.58C907.325 159.04 904.722 177.027 899.515 194.54C894.308 211.58 887.445 228.383 878.925 244.95C870.405 261.517 860.938 277.373 850.525 292.52C840.112 307.667 829.698 322.34 819.285 336.54C809.345 350.267 799.878 363.283 790.885 375.59C782.365 387.423 775.265 398.547 769.585 408.96C764.378 419.373 761.538 428.84 761.065 437.36H912.295V518.3H641.075Z" fill="white"/>
<path d="M455.132 525.4C431.466 525.4 410.402 520.43 391.942 510.49C373.956 500.55 358.336 485.167 345.082 464.34C332.302 443.513 322.599 416.533 315.972 383.4C309.346 349.793 306.032 309.56 306.032 262.7C306.032 215.84 309.346 175.843 315.972 142.71C322.599 109.577 332.302 82.5966 345.082 61.77C358.336 40.47 373.956 25.0866 391.942 15.62C410.402 5.67997 431.466 0.709961 455.132 0.709961C478.799 0.709961 499.626 5.67997 517.612 15.62C536.072 25.0866 551.692 40.47 564.472 61.77C577.726 82.5966 587.666 109.577 594.292 142.71C600.919 175.843 604.232 215.84 604.232 262.7C604.232 309.56 600.919 349.793 594.292 383.4C587.666 416.533 577.726 443.513 564.472 464.34C551.692 485.167 536.072 500.55 517.612 510.49C499.626 520.43 478.799 525.4 455.132 525.4ZM455.132 443.75C464.126 443.75 471.936 440.91 478.562 435.23C485.189 429.077 490.396 419.137 494.182 405.41C498.442 391.683 501.519 373.223 503.412 350.03C505.306 326.363 506.252 297.253 506.252 262.7C506.252 228.147 505.306 199.273 503.412 176.08C501.519 152.887 498.442 134.427 494.182 120.7C490.396 106.973 485.189 97.0333 478.562 90.8799C471.936 84.7266 464.126 81.65 455.132 81.65C446.139 81.65 438.329 84.7266 431.702 90.8799C425.549 96.56 420.342 106.5 416.082 120.7C411.822 134.427 408.746 152.887 406.852 176.08C404.959 199.273 404.012 228.147 404.012 262.7C404.012 297.253 404.959 326.363 406.852 350.03C408.746 373.223 411.822 391.683 416.082 405.41C420.342 419.137 425.549 429.077 431.702 435.23C438.329 440.91 446.139 443.75 455.132 443.75Z" fill="white"/>
<path d="M5.95783 518.3V491.32C5.95783 473.333 9.03449 455.583 15.1878 438.07C21.3412 420.083 29.3878 402.57 39.3278 385.53C49.2678 368.49 60.1545 351.687 71.9878 335.12C84.2945 318.08 96.3645 301.513 108.198 285.42C120.031 268.853 130.918 252.523 140.858 236.43C150.798 220.337 158.845 204.48 164.998 188.86C171.151 173.24 174.228 157.857 174.228 142.71C174.228 128.983 172.808 117.623 169.968 108.63C167.128 99.6367 162.631 93.01 156.478 88.75C150.798 84.0167 143.698 81.65 135.178 81.65C123.345 81.65 114.351 85.91 108.198 94.43C102.518 102.95 98.7312 114.073 96.8378 127.8C95.4178 141.527 95.1812 156.91 96.1278 173.95H0.277826C-1.14217 137.977 2.88116 106.973 12.3478 80.94C22.2878 54.9067 37.6712 35.0267 58.4978 21.3C79.7978 7.1 105.358 0 135.178 0C163.578 0 187.955 5.20667 208.308 15.62C229.135 25.56 244.991 40.9433 255.878 61.77C266.765 82.5967 272.208 108.867 272.208 140.58C272.208 159.04 269.604 177.027 264.398 194.54C259.191 211.58 252.328 228.383 243.808 244.95C235.288 261.517 225.821 277.373 215.408 292.52C204.994 307.667 194.581 322.34 184.168 336.54C174.228 350.267 164.761 363.283 155.768 375.59C147.248 387.423 140.148 398.547 134.468 408.96C129.261 419.373 126.421 428.84 125.948 437.36H277.178V518.3H5.95783Z" fill="white"/>
</svg>
