<svg
  width="36"
  height="36"
  viewBox="0 0 36 36"
  fill="none"
  aria-hidden="true"
  xmlns="http://www.w3.org/2000/svg">
  <path
    d="M26.9348 28.3135C21.6336 32.5774 13.8601 32.2539 8.94072 27.3345C6.07906 24.4729 4.78506 20.646 5.02901 16.8997L8.08159 16.4882C7.69763 19.5938 8.68404 22.8352 11.062 25.2132C14.8019 28.9531 20.6801 29.2649 24.7912 26.1699L21.6909 23.0696L31.502 21.7438L30.1762 31.5549L26.9348 28.3135ZM12.2076 9.38815C16.3166 6.31224 22.1778 6.63044 25.9113 10.364C28.284 12.7367 29.2725 15.9717 28.8939 19.0699L31.9443 18.6583C32.184 14.9184 30.889 11.099 28.0326 8.24264C23.1196 3.32966 15.3641 3.00086 10.064 7.24456L6.8194 4L5.49358 13.8111L15.3047 12.4853L12.2076 9.38815Z"
    fill="currentColor" />
</svg>
